<svg xmlns="http://www.w3.org/2000/svg" height="48" width="48" viewBox="0 0 48 48"><title>48 notepad</title><g stroke-linecap="round" fill="#6272A4" stroke-linejoin="round" class="nc-icon-wrapper"><path d="M33 6H41V13.5" stroke="#6272A4" stroke-width="2" fill="none"></path> <path d="M36.6098 26.4365L30.8699 32.1454" stroke="#6272A4" stroke-width="2" data-color="color-2" fill="none"></path> <path d="M15 6H7V40C7 42.7614 9.23858 45 12 45H36C38.7614 45 41 42.7614 41 40V36.5" stroke="#6272A4" stroke-width="2" fill="none"></path> <path d="M15 17H31" stroke="#6272A4" stroke-width="2" data-color="color-2" fill="none"></path> <path d="M15 26H24" stroke="#6272A4" stroke-width="2" data-color="color-2" fill="none"></path> <path d="M36.5 33.1304C40.7213 32.1526 43.8987 26.9639 45 18C32.3481 19.5553 27.2289 25.248 30.8436 32.1717L28 35L15 35" stroke="#6272A4" stroke-width="2" data-color="color-2" fill="none"></path> <path d="M15 8.99999V4.12375L16.2834 3.55336C21.1961 1.36992 26.8039 1.36992 31.7166 3.55336L33 4.12375V8.99999H15Z" stroke="#6272A4" stroke-width="2" fill="none"></path></g></svg>