<?xml version="1.0" encoding="UTF-8"?>
<svg id="Layer_1" data-name="Layer 1" xmlns="http://www.w3.org/2000/svg" viewBox="0 0 255.16 255.16">
  <defs>
    <style>
      .cls-1 {
        fill: #ec7eb2;
      }
    </style>
  </defs>
  <path class="cls-1" d="M170.11,212.64h0c-23.48,0-42.53-19.03-42.53-42.53h-42.53c0,46.98,38.08,85.05,85.05,85.05h0c46.98,0,85.05-38.08,85.05-85.05h-42.53c0,23.49-19.04,42.53-42.53,42.53Z"/>
  <g>
    <path class="cls-1" d="M42.53,170.11H0c0,46.98,38.08,85.05,85.05,85.05v-42.53c-23.49,0-42.53-19.04-42.53-42.53Z"/>
    <path class="cls-1" d="M0,170.11h42.53c0-23.48,19.03-42.53,42.53-42.53v-42.53C38.08,85.05,0,123.13,0,170.11Z"/>
  </g>
  <path class="cls-1" d="M85.05,42.53h0c23.48,0,42.53,19.03,42.53,42.53h42.53C170.11,38.08,132.03,0,85.05,0h0C38.08,0,0,38.08,0,85.05h42.53c0-23.49,19.04-42.53,42.53-42.53Z"/>
  <g>
    <path class="cls-1" d="M212.64,85.05h42.53C255.16,38.08,217.09,0,170.11,0v42.53c23.49,0,42.53,19.04,42.53,42.53Z"/>
    <path class="cls-1" d="M170.11,127.58v42.53c46.98,0,85.05-38.08,85.05-85.05h-42.53c0,23.48-19.03,42.53-42.53,42.53Z"/>
  </g>
</svg>
